<?xml version="1.0" encoding="UTF-8" standalone="no"?>
<!DOCTYPE svg PUBLIC "-//W3C//DTD SVG 1.1//EN"
 "http://www.w3.org/Graphics/SVG/1.1/DTD/svg11.dtd">
<!-- Generated by graphviz version 2.40.1 (20161225.0304)
 -->
<!-- Title: asde91 Pages: 1 -->
<svg width="540pt" height="362pt"
 viewBox="0.00 0.00 540.00 361.67" xmlns="http://www.w3.org/2000/svg" xmlns:xlink="http://www.w3.org/1999/xlink">
<g id="graph0" class="graph" transform="scale(.4549 .4549) rotate(0) translate(4 791)">
<title>asde91</title>
<polygon fill="#ffffff" stroke="transparent" points="-4,4 -4,-791 1183,-791 1183,4 -4,4"/>
<!-- row4 -->
<!-- row5 -->
<!-- row4&#45;&gt;row5 -->
<!-- . -->
<!-- AE.loop -->
<!-- .&#45;&gt;AE.loop -->
<!-- AE.row&#45;by&#45;row -->
<!-- AE.loop&#45;&gt;AE.row&#45;by&#45;row -->
<!-- AE.row&#45;by&#45;row&#45;&gt;row4 -->
<!-- AE -->
<g id="node6" class="node">
<title>AE</title>
<text text-anchor="middle" x="296" y="-757.4" font-family="Times,serif" font-size="32.00" fill="#000000">Application Engine</text>
</g>
<!-- AppClass -->
<g id="node8" class="node">
<title>AppClass</title>
<text text-anchor="middle" x="706" y="-757.4" font-family="Times,serif" font-size="32.00" fill="#000000">Application Class</text>
</g>
<!-- AE&#45;&gt;AppClass -->
<!-- loop -->
<g id="node9" class="node">
<title>loop</title>
<polygon fill="none" stroke="#000000" points="121,-612 121,-636 184,-636 184,-612 121,-612"/>
<text text-anchor="start" x="129.5" y="-620.2" font-family="Times,serif" font-size="16.00" fill="#000000">section</text>
<polygon fill="none" stroke="#000000" points="184,-612 184,-636 471,-636 471,-612 184,-612"/>
<text text-anchor="start" x="306" y="-620.2" font-family="Times,serif" font-size="16.00" fill="#000000">MAIN</text>
<polygon fill="none" stroke="#000000" points="121,-588 121,-612 184,-612 184,-588 121,-588"/>
<text text-anchor="start" x="139.5" y="-596.2" font-family="Times,serif" font-size="16.00" fill="#000000">step</text>
<polygon fill="none" stroke="#000000" points="184,-588 184,-612 471,-612 471,-588 184,-588"/>
<text text-anchor="start" x="313" y="-596.2" font-family="Times,serif" font-size="16.00" fill="#000000">loop</text>
<polygon fill="none" stroke="#000000" points="121,-564 121,-588 184,-588 184,-564 121,-564"/>
<text text-anchor="start" x="124" y="-572.2" font-family="Times,serif" font-size="16.00" fill="#000000">do&#45;while</text>
<polygon fill="none" stroke="#000000" points="184,-564 184,-588 471,-588 471,-564 184,-564"/>
<text text-anchor="start" x="187" y="-572.2" font-family="Times,serif" font-size="16.00" fill="#ff0000">%select EMPLID from data in staged status</text>
<polygon fill="none" stroke="#000000" points="120,-563 120,-637 472,-637 472,-563 120,-563"/>
</g>
<!-- AE&#45;&gt;loop -->
<!-- AE&#45;&gt;loop -->
<!-- CI -->
<g id="node7" class="node">
<title>CI</title>
<text text-anchor="middle" x="1008" y="-757.4" font-family="Times,serif" font-size="32.00" fill="#000000">Component Interface</text>
</g>
<!-- CI_JOB_DATA -->
<g id="node15" class="node">
<title>CI_JOB_DATA</title>
<polygon fill="none" stroke="#000000" points="882,-377 882,-401 1024,-401 1024,-377 882,-377"/>
<text text-anchor="start" x="885" y="-385.2" font-family="Times,serif" font-size="16.00" fill="#0000ff">Component Interface</text>
<polygon fill="none" stroke="#000000" points="1024,-377 1024,-401 1135,-401 1135,-377 1024,-377"/>
<text text-anchor="start" x="1027" y="-385.2" font-family="Times,serif" font-size="16.00" fill="#0000ff">CI_JOB_DATA</text>
<polygon fill="none" stroke="#000000" points="880.5,-376 880.5,-402 1135.5,-402 1135.5,-376 880.5,-376"/>
</g>
<!-- CI&#45;&gt;CI_JOB_DATA -->
<!-- AppClass&#45;&gt;CI -->
<!-- AE2CI_CiWrapper -->
<g id="node14" class="node">
<title>AE2CI_CiWrapper</title>
<polygon fill="none" stroke="#0000ff" points="507,-660 507,-684 567,-684 567,-660 507,-660"/>
<text text-anchor="start" x="521" y="-668.2" font-family="Times,serif" font-size="16.00" fill="#0000ff">class</text>
<polygon fill="none" stroke="#0000ff" points="567,-660 567,-684 929,-684 929,-660 567,-660"/>
<text text-anchor="start" x="712" y="-668.2" font-family="Times,serif" font-size="16.00" fill="#0000ff">CiWrapper</text>
<polygon fill="none" stroke="#0000ff" points="507,-636 507,-660 567,-660 567,-636 507,-636"/>
<text text-anchor="start" x="510" y="-644.2" font-family="Times,serif" font-size="16.00" fill="#0000ff">handles:</text>
<polygon fill="none" stroke="#0000ff" points="567,-636 567,-660 929,-660 929,-636 567,-636"/>
<polygon fill="none" stroke="#0000ff" points="507,-612 507,-636 567,-636 567,-612 507,-612"/>
<polygon fill="none" stroke="#0000ff" points="567,-612 567,-636 929,-636 929,-612 567,-612"/>
<text text-anchor="start" x="703" y="-620.2" font-family="Times,serif" font-size="16.00" fill="#0000ff">initializing CI</text>
<polygon fill="none" stroke="#0000ff" points="507,-588 507,-612 567,-612 567,-588 507,-588"/>
<polygon fill="none" stroke="#0000ff" points="567,-588 567,-612 929,-612 929,-588 567,-588"/>
<text text-anchor="start" x="664" y="-596.2" font-family="Times,serif" font-size="16.00" fill="#0000ff">checking CI.ErrorPending</text>
<polygon fill="none" stroke="#0000ff" points="507,-564 507,-588 567,-588 567,-564 507,-564"/>
<polygon fill="none" stroke="#0000ff" points="567,-564 567,-588 929,-588 929,-564 567,-564"/>
<text text-anchor="start" x="686" y="-572.2" font-family="Times,serif" font-size="16.00" fill="#0000ff">wrapping CI.save()</text>
<polygon fill="none" stroke="#0000ff" points="507,-540 507,-564 567,-564 567,-540 507,-540"/>
<polygon fill="none" stroke="#0000ff" points="567,-540 567,-564 929,-564 929,-540 567,-540"/>
<text text-anchor="start" x="644" y="-548.2" font-family="Times,serif" font-size="16.00" fill="#0000ff">throwing specialized Exceptions</text>
<polygon fill="none" stroke="#0000ff" points="507,-516 507,-540 567,-540 567,-516 507,-516"/>
<polygon fill="none" stroke="#0000ff" points="567,-516 567,-540 929,-540 929,-516 567,-516"/>
<text text-anchor="start" x="570" y="-524.2" font-family="Times,serif" font-size="16.00" fill="#0000ff">storing status and error messages in&#45;memory (via AET)</text>
<polygon fill="none" stroke="#0000ff" points="506,-515 506,-685 930,-685 930,-515 506,-515"/>
</g>
<!-- AppClass&#45;&gt;AE2CI_CiWrapper -->
<!-- load1row -->
<g id="node10" class="node">
<title>load1row</title>
<polygon fill="none" stroke="#000000" points="261,-413 261,-437 329,-437 329,-413 261,-413"/>
<text text-anchor="start" x="272" y="-421.2" font-family="Times,serif" font-size="16.00" fill="#000000">section</text>
<polygon fill="none" stroke="#000000" points="329,-413 329,-437 528,-437 528,-413 329,-413"/>
<text text-anchor="start" x="398" y="-421.2" font-family="Times,serif" font-size="16.00" fill="#000000">load1row</text>
<polygon fill="none" stroke="#000000" points="261,-389 261,-413 329,-413 329,-389 261,-389"/>
<text text-anchor="start" x="282" y="-397.2" font-family="Times,serif" font-size="16.00" fill="#000000">step</text>
<polygon fill="none" stroke="#000000" points="329,-389 329,-413 528,-413 528,-389 329,-389"/>
<text text-anchor="start" x="408.5" y="-397.2" font-family="Times,serif" font-size="16.00" fill="#000000">callCI</text>
<polygon fill="none" stroke="#000000" points="261,-365 261,-389 329,-389 329,-365 261,-365"/>
<text text-anchor="start" x="275.5" y="-373.2" font-family="Times,serif" font-size="16.00" fill="#000000">pcode</text>
<polygon fill="none" stroke="#000000" points="329,-365 329,-389 528,-389 528,-365 329,-365"/>
<text text-anchor="start" x="332" y="-373.2" font-family="Times,serif" font-size="16.00" fill="#000000">load rowset by AET.EMPLID</text>
<polygon fill="none" stroke="#000000" points="261,-341 261,-365 329,-365 329,-341 261,-341"/>
<text text-anchor="start" x="264" y="-349.2" font-family="Times,serif" font-size="16.00" fill="#ff0000">On Error:</text>
<polygon fill="none" stroke="#000000" points="329,-341 329,-365 528,-365 528,-341 329,-341"/>
<text text-anchor="start" x="407.5" y="-349.2" font-family="Times,serif" font-size="16.00" fill="#ff0000">Ignore</text>
<polygon fill="none" stroke="#000000" points="259.5,-340 259.5,-438 528.5,-438 528.5,-340 259.5,-340"/>
</g>
<!-- loop&#45;&gt;load1row -->
<g id="edge7" class="edge">
<title>loop&#45;&gt;load1row</title>
<path fill="none" stroke="#000000" d="M287.6498,-558.7447C284.2473,-531.8945 283.7512,-496.8245 297,-469 300.1614,-462.3607 304.1704,-456.0834 308.7493,-450.1878"/>
<polygon fill="#000000" stroke="#000000" points="311.5547,-452.29 315.3203,-442.3869 306.201,-447.7803 311.5547,-452.29"/>
<text text-anchor="middle" x="338.5" y="-472.8" font-family="Times,serif" font-size="14.00" fill="#000000">AET.EMPLID</text>
</g>
<!-- loop&#45;&gt;load1row -->
<!-- updMsg -->
<g id="node11" class="node">
<title>updMsg</title>
<polygon fill="none" stroke="#000000" points="229,-101 229,-125 387,-125 387,-101 229,-101"/>
<text text-anchor="start" x="285" y="-109.2" font-family="Times,serif" font-size="16.00" fill="#000000">section</text>
<polygon fill="none" stroke="#000000" points="387,-101 387,-125 560,-125 560,-101 387,-101"/>
<text text-anchor="start" x="443" y="-109.2" font-family="Times,serif" font-size="16.00" fill="#000000">load1row</text>
<polygon fill="none" stroke="#000000" points="229,-77 229,-101 387,-101 387,-77 229,-77"/>
<text text-anchor="start" x="295" y="-85.2" font-family="Times,serif" font-size="16.00" fill="#000000">step</text>
<polygon fill="none" stroke="#000000" points="387,-77 387,-101 560,-101 560,-77 387,-77"/>
<text text-anchor="start" x="447" y="-85.2" font-family="Times,serif" font-size="16.00" fill="#000000">updMsg</text>
<polygon fill="none" stroke="#000000" points="229,-53 229,-77 560,-77 560,-53 229,-53"/>
<text text-anchor="start" x="232" y="-61.2" font-family="Times,serif" font-size="16.00" fill="#ff0000">update current staging row&#39;s status + message field</text>
<polygon fill="none" stroke="#000000" points="229,-29 229,-53 560,-53 560,-29 229,-29"/>
<text text-anchor="start" x="323.5" y="-37.2" font-family="Times,serif" font-size="16.00" fill="#ff0000">from in&#45;memory AET</text>
<polygon fill="none" stroke="#000000" points="229,-5 229,-29 560,-29 560,-5 229,-5"/>
<text text-anchor="start" x="246.5" y="-13.2" font-family="Times,serif" font-size="16.00" fill="#ff0000">make sure that row isn&#39;t %SELECTed by loop</text>
<polygon fill="none" stroke="#000000" points="227.5,-4 227.5,-126 560.5,-126 560.5,-4 227.5,-4"/>
</g>
<!-- load1row&#45;&gt;updMsg -->
<g id="edge8" class="edge">
<title>load1row&#45;&gt;updMsg</title>
<path fill="none" stroke="#000000" d="M388.8465,-335.8608C386.9637,-282.6569 386.7462,-200.2969 388.1941,-140.3581"/>
<polygon fill="#000000" stroke="#000000" points="391.6973,-140.2793 388.4621,-130.1906 384.6997,-140.0948 391.6973,-140.2793"/>
</g>
<!-- load1row&#45;&gt;updMsg -->
<!-- Wrap_CI_JOB_DATA -->
<g id="node12" class="node">
<title>Wrap_CI_JOB_DATA</title>
<polygon fill="none" stroke="#000000" points="602,-401 602,-425 659,-425 659,-401 602,-401"/>
<text text-anchor="start" x="614.5" y="-409.2" font-family="Times,serif" font-size="16.00" fill="#000000">class</text>
<polygon fill="none" stroke="#000000" points="659,-401 659,-425 817,-425 817,-401 659,-401"/>
<text text-anchor="start" x="663.5" y="-409.2" font-family="Times,serif" font-size="16.00" fill="#000000">Wrap_CI_JOB_DATA</text>
<polygon fill="none" stroke="#000000" points="602,-377 602,-401 659,-401 659,-377 602,-377"/>
<text text-anchor="start" x="606.5" y="-385.2" font-family="Times,serif" font-size="16.00" fill="#000000">inherits</text>
<polygon fill="none" stroke="#000000" points="659,-377 659,-401 817,-401 817,-377 659,-377"/>
<text text-anchor="start" x="702" y="-385.2" font-family="Times,serif" font-size="16.00" fill="#0000ff">CiWrapper</text>
<polygon fill="none" stroke="#000000" points="602,-353 602,-377 817,-377 817,-353 602,-353"/>
<text text-anchor="start" x="605" y="-361.2" font-family="Times,serif" font-size="16.00" fill="#ff0000">write custom business logic here</text>
<polygon fill="none" stroke="#000000" points="600.5,-352 600.5,-426 817.5,-426 817.5,-352 600.5,-352"/>
</g>
<!-- load1row&#45;&gt;Wrap_CI_JOB_DATA -->
<g id="edge10" class="edge">
<title>load1row&#45;&gt;Wrap_CI_JOB_DATA</title>
<path fill="none" stroke="#000000" d="M536.7536,-389C551.8314,-389 567.091,-389 581.9733,-389"/>
<polygon fill="#000000" stroke="#000000" points="582.2092,-392.5001 592.2092,-389 582.2092,-385.5001 582.2092,-392.5001"/>
<text text-anchor="middle" x="564.5" y="-395.8" font-family="Times,serif" font-size="14.00" fill="#000000">rowset</text>
</g>
<!-- Wrap_CI_PERSONAL_DATA -->
<g id="node13" class="node">
<title>Wrap_CI_PERSONAL_DATA</title>
<polygon fill="none" stroke="#000000" points="546,-238 546,-262 600,-262 600,-238 546,-238"/>
<text text-anchor="start" x="557" y="-246.2" font-family="Times,serif" font-size="16.00" fill="#000000">class</text>
<polygon fill="none" stroke="#000000" points="600,-238 600,-262 809,-262 809,-238 600,-238"/>
<text text-anchor="start" x="603" y="-246.2" font-family="Times,serif" font-size="16.00" fill="#000000">Wrap_CI_PERSONAL_DATA</text>
<polygon fill="none" stroke="#000000" points="546,-214 546,-238 600,-238 600,-214 546,-214"/>
<text text-anchor="start" x="549" y="-222.2" font-family="Times,serif" font-size="16.00" fill="#000000">inherits</text>
<polygon fill="none" stroke="#000000" points="600,-214 600,-238 809,-238 809,-214 600,-214"/>
<text text-anchor="start" x="668.5" y="-222.2" font-family="Times,serif" font-size="16.00" fill="#0000ff">CiWrapper</text>
<polygon fill="none" stroke="#000000" points="546,-190 546,-214 809,-214 809,-190 546,-190"/>
<text text-anchor="start" x="573" y="-198.2" font-family="Times,serif" font-size="16.00" fill="#ff0000">write custom business logic here</text>
<polygon fill="none" stroke="#000000" points="544.5,-189 544.5,-263 809.5,-263 809.5,-189 544.5,-189"/>
</g>
<!-- load1row&#45;&gt;Wrap_CI_PERSONAL_DATA -->
<g id="edge13" class="edge">
<title>load1row&#45;&gt;Wrap_CI_PERSONAL_DATA</title>
<path fill="none" stroke="#000000" d="M486.2732,-335.8532C521.8093,-315.3855 562.0775,-292.1921 596.4255,-272.4086"/>
<polygon fill="#000000" stroke="#000000" points="598.5658,-275.215 605.4843,-267.191 595.072,-269.1492 598.5658,-275.215"/>
<text text-anchor="middle" x="571" y="-297.8" font-family="Times,serif" font-size="14.00" fill="#000000">rowset</text>
</g>
<!-- Wrap_CI_JOB_DATA&#45;&gt;Wrap_CI_PERSONAL_DATA -->
<!-- Wrap_CI_JOB_DATA&#45;&gt;Wrap_CI_PERSONAL_DATA -->
<!-- Wrap_CI_JOB_DATA&#45;&gt;CI_JOB_DATA -->
<g id="edge11" class="edge">
<title>Wrap_CI_JOB_DATA&#45;&gt;CI_JOB_DATA</title>
<path fill="none" stroke="#000000" d="M825.5049,-389C837.6645,-389 849.8242,-389 861.9839,-389"/>
<polygon fill="#000000" stroke="#000000" points="862.198,-392.5001 872.198,-389 862.1979,-385.5001 862.198,-392.5001"/>
</g>
<!-- CI_PERSONAL_DATA -->
<g id="node16" class="node">
<title>CI_PERSONAL_DATA</title>
<polygon fill="none" stroke="#000000" points="862,-214 862,-238 1004,-238 1004,-214 862,-214"/>
<text text-anchor="start" x="865" y="-222.2" font-family="Times,serif" font-size="16.00" fill="#0000ff">Component Interface</text>
<polygon fill="none" stroke="#000000" points="1004,-214 1004,-238 1170,-238 1170,-214 1004,-214"/>
<text text-anchor="start" x="1007" y="-222.2" font-family="Times,serif" font-size="16.00" fill="#0000ff">CI_PERSONAL_DATA</text>
<polygon fill="none" stroke="#000000" points="861,-213 861,-239 1171,-239 1171,-213 861,-213"/>
</g>
<!-- Wrap_CI_PERSONAL_DATA&#45;&gt;CI_PERSONAL_DATA -->
<g id="edge12" class="edge">
<title>Wrap_CI_PERSONAL_DATA&#45;&gt;CI_PERSONAL_DATA</title>
<path fill="none" stroke="#000000" d="M817.6982,-226C826.0506,-226 834.4029,-226 842.7553,-226"/>
<polygon fill="#000000" stroke="#000000" points="842.9433,-229.5001 852.9433,-226 842.9432,-222.5001 842.9433,-229.5001"/>
</g>
<!-- AE2CI_CiWrapper&#45;&gt;Wrap_CI_JOB_DATA -->
<!-- CI_JOB_DATA&#45;&gt;CI_PERSONAL_DATA -->
</g>
</svg>
