<?xml version="1.0" encoding="UTF-8" standalone="no"?>
<!DOCTYPE svg PUBLIC "-//W3C//DTD SVG 1.1//EN"
 "http://www.w3.org/Graphics/SVG/1.1/DTD/svg11.dtd">
<!-- Generated by graphviz version 2.40.1 (20161225.0304)
 -->
<!-- Title: standardmode Pages: 1 -->
<svg width="257pt" height="437pt"
 viewBox="0.00 0.00 257.00 437.00" xmlns="http://www.w3.org/2000/svg" xmlns:xlink="http://www.w3.org/1999/xlink">
<g id="graph0" class="graph" transform="scale(1 1) rotate(0) translate(4 433)">
<title>standardmode</title>
<polygon fill="#ffffff" stroke="transparent" points="-4,4 -4,-433 253,-433 253,4 -4,4"/>
<!-- AE -->
<g id="node1" class="node">
<title>AE</title>
<polygon fill="none" stroke="#000000" points="9.5,-403 9.5,-424 240.5,-424 240.5,-403 9.5,-403"/>
<text text-anchor="start" x="67" y="-410.8" font-family="Times,serif" font-weight="bold" font-size="14.00" fill="#000000">Application Engine</text>
<polygon fill="none" stroke="#000000" points="9.5,-382 9.5,-403 240.5,-403 240.5,-382 9.5,-382"/>
<text text-anchor="start" x="37" y="-388.8" font-family="Times,serif" font-size="14.00" fill="#000000">load Rowset from State Record</text>
<polygon fill="none" stroke="#000000" points="9.5,-361 9.5,-382 240.5,-382 240.5,-361 9.5,-361"/>
<text text-anchor="start" x="12.5" y="-367.8" font-family="Times,serif" font-size="14.00" fill="#000000">instantiates 1 or more Application Class</text>
<polygon fill="none" stroke="#000000" points="9.5,-340 9.5,-361 240.5,-361 240.5,-340 9.5,-340"/>
<text text-anchor="start" x="22.5" y="-346.8" font-family="Times,serif" font-size="14.00" fill="#000000">writes user messages to the database</text>
<polygon fill="none" stroke="#000000" points="8,-339 8,-425 241,-425 241,-339 8,-339"/>
</g>
<!-- CustomAppClass -->
<g id="node2" class="node">
<title>CustomAppClass</title>
<polygon fill="none" stroke="#0000ff" points="45.5,-258 45.5,-279 203.5,-279 203.5,-258 45.5,-258"/>
<text text-anchor="start" x="48.5" y="-265.8" font-family="Times,serif" font-weight="bold" font-size="14.00" fill="#0000ff">custom Application Class</text>
<polygon fill="none" stroke="#0000ff" points="45.5,-237 45.5,-258 203.5,-258 203.5,-237 45.5,-237"/>
<text text-anchor="start" x="57.5" y="-243.8" font-family="Times,serif" font-size="14.00" fill="#0000ff">holds the business logic</text>
<polygon fill="none" stroke="#0000ff" points="44.5,-236 44.5,-280 204.5,-280 204.5,-236 44.5,-236"/>
</g>
<!-- AE&#45;&gt;CustomAppClass -->
<g id="edge1" class="edge">
<title>AE&#45;&gt;CustomAppClass</title>
<path fill="none" stroke="#000000" d="M124.5,-334.7672C124.5,-321.3996 124.5,-307.0596 124.5,-294.4343"/>
<polygon fill="#000000" stroke="#000000" points="128.0001,-294.2913 124.5,-284.2913 121.0001,-294.2913 128.0001,-294.2913"/>
<text text-anchor="middle" x="166.5" y="-305.8" font-family="Times,serif" font-size="14.00" fill="#000000">data in Rowset</text>
</g>
<!-- AE2CI:CiWrapper -->
<g id="node3" class="node">
<title>AE2CI:CiWrapper</title>
<polygon fill="none" stroke="#0000ff" points="27.5,-155 27.5,-176 221.5,-176 221.5,-155 27.5,-155"/>
<text text-anchor="start" x="66.5" y="-162.8" font-family="Times,serif" font-weight="bold" font-size="14.00" fill="#0000ff">AE2CI:CiWrapper</text>
<polygon fill="none" stroke="#0000ff" points="27.5,-134 27.5,-155 221.5,-155 221.5,-134 27.5,-134"/>
<text text-anchor="start" x="30.5" y="-140.8" font-family="Times,serif" font-size="14.00" fill="#0000ff">generic Application Class for CIs</text>
<polygon fill="none" stroke="#0000ff" points="27.5,-113 27.5,-134 221.5,-134 221.5,-113 27.5,-113"/>
<text text-anchor="start" x="69" y="-119.8" font-family="Times,serif" font-size="14.00" fill="#0000ff">CI boiler plate code</text>
<polygon fill="none" stroke="#0000ff" points="27.5,-92 27.5,-113 221.5,-113 221.5,-92 27.5,-92"/>
<text text-anchor="start" x="34" y="-98.8" font-family="Times,serif" font-size="14.00" fill="#0000ff">error/rollback/message handling</text>
<polygon fill="none" stroke="#0000ff" points="26.5,-91 26.5,-177 222.5,-177 222.5,-91 26.5,-91"/>
</g>
<!-- CustomAppClass&#45;&gt;AE2CI:CiWrapper -->
<g id="edge2" class="edge">
<title>CustomAppClass&#45;&gt;AE2CI:CiWrapper</title>
<path fill="none" stroke="#0000ff" d="M124.5,-231.7028C124.5,-219.9182 124.5,-205.5231 124.5,-191.443"/>
<polygon fill="#0000ff" stroke="#0000ff" points="128.0001,-191.2881 124.5,-181.2881 121.0001,-191.2882 128.0001,-191.2881"/>
<text text-anchor="middle" x="161" y="-202.8" font-family="Times,serif" font-size="14.00" fill="#0000ff">inherits from</text>
</g>
<!-- CI -->
<g id="node4" class="node">
<title>CI</title>
<polygon fill="none" stroke="#0000ff" points="57.5,-7 57.5,-28 192.5,-28 192.5,-7 57.5,-7"/>
<text text-anchor="start" x="61" y="-14.8" font-family="Times,serif" font-weight="bold" font-size="14.00" fill="#0000ff">Component Interface</text>
<polygon fill="none" stroke="#0000ff" points="56,-6.5 56,-29.5 193,-29.5 193,-6.5 56,-6.5"/>
</g>
<!-- AE2CI:CiWrapper&#45;&gt;CI -->
<g id="edge3" class="edge">
<title>AE2CI:CiWrapper&#45;&gt;CI</title>
<path fill="none" stroke="#0000ff" d="M124.5,-86.8184C124.5,-73.0404 124.5,-58.418 124.5,-46.2117"/>
<polygon fill="#0000ff" stroke="#0000ff" points="128.0001,-46.1887 124.5,-36.1888 121.0001,-46.1888 128.0001,-46.1887"/>
<text text-anchor="middle" x="146.5" y="-57.8" font-family="Times,serif" font-size="14.00" fill="#0000ff">calls CI</text>
</g>
</g>
</svg>
