<?xml version="1.0" encoding="UTF-8" standalone="no"?>
<!DOCTYPE svg PUBLIC "-//W3C//DTD SVG 1.1//EN"
 "http://www.w3.org/Graphics/SVG/1.1/DTD/svg11.dtd">
<!-- Generated by graphviz version 2.40.1 (20161225.0304)
 -->
<!-- Title: standardmode Pages: 1 -->
<svg width="269pt" height="184pt"
 viewBox="0.00 0.00 269.00 184.00" xmlns="http://www.w3.org/2000/svg" xmlns:xlink="http://www.w3.org/1999/xlink">
<g id="graph0" class="graph" transform="scale(1 1) rotate(0) translate(4 180)">
<title>standardmode</title>
<polygon fill="#ffffff" stroke="transparent" points="-4,4 -4,-180 265,-180 265,4 -4,4"/>
<!-- AE -->
<g id="node1" class="node">
<title>AE</title>
<polygon fill="none" stroke="#000000" points="21,-149.5 21,-170.5 143,-170.5 143,-149.5 21,-149.5"/>
<text text-anchor="start" x="24" y="-157.3" font-family="Times,serif" font-weight="bold" font-size="14.00" fill="#000000">Application Engine</text>
<polygon fill="none" stroke="#000000" points="21,-128.5 21,-149.5 143,-149.5 143,-128.5 21,-128.5"/>
<text text-anchor="start" x="28" y="-135.3" font-family="Times,serif" font-size="14.00" fill="#000000">CI boilerplate code</text>
<polygon fill="none" stroke="#000000" points="21,-107.5 21,-128.5 143,-128.5 143,-107.5 21,-107.5"/>
<text text-anchor="start" x="42.5" y="-114.3" font-family="Times,serif" font-size="14.00" fill="#000000">business logic</text>
<polygon fill="none" stroke="#000000" points="20,-107 20,-172 144,-172 144,-107 20,-107"/>
</g>
<!-- CI -->
<g id="node2" class="node">
<title>CI</title>
<polygon fill="none" stroke="#000000" points="9,-26 9,-47 155,-47 155,-26 9,-26"/>
<text text-anchor="start" x="18" y="-33.8" font-family="Times,serif" font-weight="bold" font-size="14.00" fill="#000000">Component Interface</text>
<polygon fill="none" stroke="#000000" points="9,-5 9,-26 155,-26 155,-5 9,-5"/>
<text text-anchor="start" x="12" y="-11.8" font-family="Times,serif" font-size="14.00" fill="#000000">logging via MessageBox</text>
<polygon fill="none" stroke="#000000" points="8,-4 8,-48 156,-48 156,-4 8,-4"/>
</g>
<!-- AE&#45;&gt;CI -->
<g id="edge1" class="edge">
<title>AE&#45;&gt;CI</title>
<path fill="none" stroke="#000000" d="M82,-102.9631C82,-89.8727 82,-75.1318 82,-62.0802"/>
<polygon fill="#000000" stroke="#000000" points="85.5001,-62.0392 82,-52.0392 78.5001,-62.0392 85.5001,-62.0392"/>
<text text-anchor="middle" x="171.5" y="-73.8" font-family="Times,serif" font-size="14.00" fill="#000000">direct call via State Record data</text>
</g>
</g>
</svg>
